HIERARCHY
ROOT Hips
{
 OFFSET 0.000000 0.000000 0.000000
 CHANNELS 6 Xposition Yposition Zposition Yrotation Xrotation Zrotation
 JOINT Chest
 {
  OFFSET 0.000000 9.581000 -0.001100
  CHANNELS 3 Yrotation Xrotation Zrotation
  JOINT Chest2
  {
   OFFSET 0.000000 9.561100 0.002200
   CHANNELS 3 Yrotation Xrotation Zrotation
   JOINT Chest3
   {
    OFFSET 0.000000 9.521100 0.000000
    CHANNELS 3 Yrotation Xrotation Zrotation
    JOINT Chest4
    {
     OFFSET 0.000000 9.511400 0.000000
     CHANNELS 3 Yrotation Xrotation Zrotation
     JOINT Neck
     {
      OFFSET 0.000000 14.375100 0.000000
      CHANNELS 3 Yrotation Xrotation Zrotation
      JOINT Head
      {
       OFFSET 0.000000 8.901200 0.004600
       CHANNELS 3 Yrotation Xrotation Zrotation
       End Site
       {
        OFFSET 0.000000 16.962200 0.002400
       }
      }
     }
     JOINT RightCollar
     {
      OFFSET -2.920100 9.518800 0.000000
      CHANNELS 3 Yrotation Xrotation Zrotation
      JOINT RightShoulder
      {
       OFFSET -13.664500 0.000000 0.000000
       CHANNELS 3 Yrotation Xrotation Zrotation
       JOINT RightElbow
       {
        OFFSET 0.000000 -29.999200 0.000000
        CHANNELS 3 Yrotation Xrotation Zrotation
        JOINT RightWrist
        {
         OFFSET 0.000000 -24.253600 0.000000
         CHANNELS 3 Yrotation Xrotation Zrotation
         End Site
         {
          OFFSET 0.000000 -17.918900 0.000000
         }
        }
       }
      }
     }
     JOINT LeftCollar
     {
      OFFSET 2.920100 9.518800 0.000000
      CHANNELS 3 Yrotation Xrotation Zrotation
      JOINT LeftShoulder
      {
       OFFSET 13.664500 0.000000 0.000000
       CHANNELS 3 Yrotation Xrotation Zrotation
       JOINT LeftElbow
       {
        OFFSET 0.000000 -29.999200 0.000000
        CHANNELS 3 Yrotation Xrotation Zrotation
        JOINT LeftWrist
        {
         OFFSET 0.000000 -24.253600 0.000000
         CHANNELS 3 Yrotation Xrotation Zrotation
         End Site
         {
          OFFSET 0.000000 -17.918900 0.000000
         }
        }
       }
      }
     }
    }
   }
  }
 }
 JOINT RightHip
 {
  OFFSET -7.797300 0.005300 0.000500
  CHANNELS 3 Yrotation Xrotation Zrotation
  JOINT RightKnee
  {
   OFFSET 0.000000 -40.663400 -0.000500
   CHANNELS 3 Yrotation Xrotation Zrotation
   JOINT RightAnkle
   {
    OFFSET 0.000000 -39.523700 -0.000900
    CHANNELS 3 Yrotation Xrotation Zrotation
    JOINT RightToe
    {
     OFFSET 0.000000 -6.418000 14.485300
     CHANNELS 3 Yrotation Xrotation Zrotation
     End Site
     {
      OFFSET 0.000000 -1.465200 6.326400
     }
    }
   }
  }
 }
 JOINT LeftHip
 {
  OFFSET 7.797300 0.005300 0.000500
  CHANNELS 3 Yrotation Xrotation Zrotation
  JOINT LeftKnee
  {
   OFFSET 0.000000 -40.663400 -0.000500
   CHANNELS 3 Yrotation Xrotation Zrotation
   JOINT LeftAnkle
   {
    OFFSET 0.000000 -39.523700 -0.000900
    CHANNELS 3 Yrotation Xrotation Zrotation
    JOINT LeftToe
    {
     OFFSET 0.000000 -6.418000 14.485300
     CHANNELS 3 Yrotation Xrotation Zrotation
     End Site
     {
      OFFSET 0.000000 -1.465200 6.326400
     }
    }
   }
  }
 }
}
MOTION
Frames: 7
Frame Time: 0.008333
0.000000 86.422400 0.000000 0.000000 -5.767877 0.000000 0.000000 11.653817 0.000000 0.000000 -5.885947 0.000000 0.000000 -0.000000 0.000000 0.000000 -0.000000 0.000000 0.000000 12.528835 0.000000 0.000000 0.711642 0.000000 0.000000 -0.000000 0.000000 0.000000 0.000000 -90.000000 0.000000 -2.309062 0.000000 0.000000 2.309062 0.000000 0.000000 -0.000000 0.000000 0.000000 -0.000000 90.000000 0.000000 -2.309062 0.000000 0.000000 2.309062 0.000000 0.000000 8.520406 0.000000 0.000000 1.905762 0.000000 -0.000000 -4.658285 0.000000 0.000000 -0.000000 0.000000 0.000000 8.520406 0.000000 0.000000 1.905762 0.000000 -0.000000 -4.658285 0.000000 0.000000 -0.000000 0.000000
-15.216922 126.878805 17.677009 171.761380 -44.404302 -4.294793 3.555394 24.594492 3.146911 0.456674 3.878079 0.381385 0.750954 6.222854 0.630624 2.805194 20.407225 2.461919 3.929044 13.862681 -3.484920 4.989501 -11.088735 -4.642587 0.736266 1.217155 3.253578 -0.039266 -7.066037 -9.996010 -135.822672 -67.577177 179.513032 13.797670 10.058585 -4.331938 -10.223743 -0.755461 0.965979 -2.086752 -8.592908 10.391967 82.124870 -68.430404 -120.752254 -7.503963 -4.236481 5.338460 -3.681972 -25.046359 1.216120 -45.875235 86.121352 -47.715768 7.075231 -12.367585 3.220270 0.000469 -0.004193 0.000208 0.379830 -26.672022 1.196553 37.433966 83.985814 41.931717 -0.439043 -17.375971 -3.362188 0.002355 0.000956 0.001044
-15.216624 126.878797 17.676714 171.769028 -44.399763 -4.306401 3.551667 24.588503 3.152638 0.455990 3.872643 0.379067 0.746264 6.219144 0.632384 2.804651 20.400855 2.462801 3.904766 13.846929 -3.483598 4.955406 -11.119575 -4.632693 0.739949 1.236528 3.247810 -0.062285 -7.057987 -10.006193 -135.598580 -67.669323 179.308108 13.784515 10.030841 -4.375563 -10.228757 -0.743292 0.965331 -2.087913 -8.598369 10.389088 81.815231 -68.460998 -120.447413 -7.489334 -4.278582 5.380017 -3.686782 -25.045460 1.226268 -45.883374 86.116450 -47.722579 7.072860 -12.368798 3.220033 0.001305 -0.004430 0.000578 0.375894 -26.674875 1.199149 37.477320 83.986282 41.978331 -0.439582 -17.380392 -3.357052 0.002010 0.001608 0.000891
-15.216698 126.878789 17.676248 171.776066 -44.395123 -4.315686 3.547609 24.578954 3.152514 0.456250 3.874209 0.381858 0.744779 6.210025 0.631042 2.803377 20.397770 2.466629 3.854017 13.795566 -3.477785 4.942550 -11.118471 -4.625934 0.734847 1.258773 3.233512 -0.069150 -7.060297 -9.999235 -135.365973 -67.785295 179.086117 13.767367 9.999050 -4.434296 -10.230914 -0.732506 0.963588 -2.091860 -8.607835 10.388279 81.452567 -68.495261 -120.092709 -7.433090 -4.267453 5.498303 -3.686937 -25.043826 1.236565 -45.946642 86.109141 -47.786967 7.068987 -12.374105 3.225640 0.001288 -0.003830 0.000571 0.373119 -26.678096 1.203048 37.511029 83.989186 42.013377 -0.443028 -17.384196 -3.357511 0.002078 0.002100 0.000921
-15.217369 126.878342 17.676024 171.780651 -44.387021 -4.320066 3.544693 24.567689 3.150386 0.455593 3.874640 0.383692 0.743461 6.203441 0.630354 2.802696 20.396520 2.469207 3.827014 13.772766 -3.473696 4.912614 -11.137000 -4.615035 0.711075 1.282688 3.213506 -0.059670 -7.069708 -9.984888 -135.110996 -67.914500 178.841302 13.746604 9.966718 -4.506746 -10.229690 -0.723618 0.961342 -2.095175 -8.613810 10.388533 81.052560 -68.536602 -119.702675 -7.386431 -4.310197 5.612720 -3.685869 -25.049820 1.240205 -45.983856 86.107072 -47.819856 7.053053 -12.375552 3.226717 0.000363 -0.005307 0.000161 0.372310 -26.683928 1.203647 37.519022 83.993577 42.022449 -0.443829 -17.389684 -3.357642 0.002599 0.002704 0.001152
-15.218065 126.878072 17.675558 171.788308 -44.380397 -4.326213 3.539992 24.561557 3.152483 0.454891 3.871410 0.383435 0.740230 6.182200 0.630892 2.804130 20.417381 2.468640 3.797802 13.740723 -3.467057 4.882897 -11.151203 -4.603362 0.708020 1.287855 3.210845 -0.086362 -7.068650 -9.989215 -134.807976 -68.054528 178.558457 13.724564 9.930795 -4.591282 -10.234677 -0.726048 0.969382 -2.092775 -8.615637 10.380171 80.578289 -68.584206 -119.234357 -7.342248 -4.397649 5.732499 -3.686118 -25.051228 1.237171 -45.943596 86.107777 -47.776797 7.062404 -12.379517 3.221819 0.000023 -0.004178 0.000010 0.368452 -26.687167 1.202569 37.503144 83.996479 42.008818 -0.440654 -17.394012 -3.358571 0.003137 0.003270 0.001390
-15.218867 126.878090 17.674712 171.792952 -44.376728 -4.329301 3.537657 24.552994 3.152671 0.453891 3.867185 0.383682 0.737941 6.182796 0.631462 2.801088 20.401719 2.469341 3.767689 13.729342 -3.458123 4.852177 -11.160260 -4.590273 0.697327 1.317181 3.201464 -0.138563 -7.082005 -9.987682 -134.416470 -68.219671 178.218914 13.701477 9.884259 -4.691430 -10.236791 -0.707165 0.972366 -2.093959 -8.642003 10.362953 79.938109 -68.638252 -118.597580 -7.288916 -4.517602 5.881015 -3.687130 -25.050872 1.233577 -45.952562 86.105355 -47.790647 7.090441 -12.385182 3.220910 0.000366 -0.004175 0.000162 0.366068 -26.688594 1.201908 37.484771 83.998881 41.991221 -0.441838 -17.393947 -3.361019 0.002427 0.002794 0.001076
